<?xml version="1.0" standalone="no"?>
<!DOCTYPE svg PUBLIC "-//W3C//DTD SVG 20010904//EN"
 "http://www.w3.org/TR/2001/REC-SVG-20010904/DTD/svg10.dtd">
<svg version="1.0" xmlns="http://www.w3.org/2000/svg"
 width="150.000000pt" height="150.000000pt" viewBox="0 0 150.000000 150.000000"
 preserveAspectRatio="xMidYMid meet">
<metadata>
Created by potrace 1.14, written by Peter Selinger 2001-2017
</metadata>
<g transform="translate(0.000000,150.000000) scale(0.100000,-0.100000)"
fill="#000000" stroke="none">
<path d="M0 750 l0 -750 750 0 750 0 0 750 0 750 -750 0 -750 0 0 -750z m1043
491 c68 -42 71 -52 75 -268 4 -178 3 -195 -14 -215 -34 -37 -94 -56 -203 -64
l-104 -7 6 -69 6 -68 -78 0 c-43 0 -93 -3 -110 -6 l-31 -6 0 145 0 145 121 7
c146 9 159 17 159 95 0 76 -21 117 -72 140 -24 11 -57 20 -75 20 -37 0 -180
-43 -235 -71 -21 -11 -41 -19 -46 -19 -9 0 -22 72 -38 213 l-6 58 303 -3 c300
-3 305 -3 342 -27z m-284 -742 c40 -14 65 -58 52 -92 -12 -32 -63 -74 -99 -82
-35 -7 -108 20 -122 46 -25 46 1 97 64 125 38 16 64 17 105 3z"/>
</g>
</svg>
